<svg xmlns="http://www.w3.org/2000/svg" xmlns:xlink="http://www.w3.org/1999/xlink" preserveAspectRatio="xMidYMid" width="15" height="22" viewBox="0 0 15 22">
  <defs>
    <style>

      .cls-2 {
        fill: #666666;
      }
    </style>
  </defs>
  <path d="M14.077,13.200 C13.394,10.262 10.712,8.066 7.500,8.066 C4.288,8.066 1.606,10.262 0.923,13.200 C0.923,13.200 0.151,13.200 0.151,13.200 C0.846,9.853 3.872,7.333 7.500,7.333 C11.128,7.333 14.154,9.853 14.849,13.200 C14.849,13.200 14.077,13.200 14.077,13.200 ZM7.500,7.333 C5.429,7.333 3.750,5.691 3.750,3.666 C3.750,1.641 5.429,-0.000 7.500,-0.000 C9.571,-0.000 11.250,1.641 11.250,3.666 C11.250,5.691 9.571,7.333 7.500,7.333 ZM7.500,0.733 C5.843,0.733 4.500,2.046 4.500,3.666 C4.500,5.286 5.843,6.599 7.500,6.599 C9.157,6.599 10.500,5.286 10.500,3.666 C10.500,2.046 9.157,0.733 7.500,0.733 Z" id="path-1" class="cls-2" fill-rule="evenodd"/>
</svg>
