<svg xmlns="http://www.w3.org/2000/svg" xmlns:xlink="http://www.w3.org/1999/xlink" preserveAspectRatio="xMidYMid" width="15" height="13" viewBox="0 0 15 13">
  <defs>
    <style>

      .cls-2 {
        fill: #666666;
      }
    </style>
  </defs>
  <path d="M13.172,10.256 C13.172,10.256 6.569,10.256 6.569,10.256 C6.569,10.256 4.576,12.768 4.576,12.768 C4.074,13.402 3.667,13.260 3.667,12.451 C3.667,12.451 3.667,10.256 3.667,10.256 C3.667,10.256 1.474,10.256 1.474,10.256 C0.666,10.256 0.011,9.601 0.011,8.793 C0.011,8.793 0.011,1.476 0.011,1.476 C0.011,0.667 0.666,0.012 1.474,0.012 C1.474,0.012 13.172,0.012 13.172,0.012 C13.980,0.012 14.634,0.667 14.634,1.476 C14.634,1.476 14.634,8.793 14.634,8.793 C14.634,9.601 13.980,10.256 13.172,10.256 ZM13.903,1.476 C13.903,1.072 13.576,0.744 13.172,0.744 C13.172,0.744 1.474,0.744 1.474,0.744 C1.070,0.744 0.742,1.072 0.742,1.476 C0.742,1.476 0.742,8.793 0.742,8.793 C0.742,9.197 1.070,9.524 1.474,9.524 C1.474,9.524 4.398,9.524 4.398,9.524 C4.398,9.524 4.398,11.903 4.398,11.903 C4.398,11.903 6.274,9.524 6.274,9.524 C6.274,9.524 13.172,9.524 13.172,9.524 C13.576,9.524 13.903,9.197 13.903,8.793 C13.903,8.793 13.903,1.476 13.903,1.476 Z" id="path-1" class="cls-2" fill-rule="evenodd"/>
</svg>
