<svg xmlns="http://www.w3.org/2000/svg" xmlns:xlink="http://www.w3.org/1999/xlink" preserveAspectRatio="xMidYMid" width="17" height="15" viewBox="0 0 17 15">
  <defs>
    <style>

      .cls-2 {
        fill: #666666;
      }
    </style>
  </defs>
  <path d="M15.805,5.429 C15.805,5.429 10.891,10.391 10.891,10.391 C10.891,10.391 9.257,8.741 9.257,8.741 C9.257,8.741 14.171,3.779 14.171,3.779 C14.472,3.474 14.961,3.474 15.263,3.779 C15.263,3.779 15.805,4.327 15.805,4.327 C16.107,4.631 16.107,5.125 15.805,5.429 ZM14.718,4.329 C14.718,4.329 9.804,9.292 9.804,9.292 C9.804,9.292 10.350,9.843 10.350,9.843 C10.350,9.843 15.264,4.881 15.264,4.881 C15.264,4.881 14.718,4.329 14.718,4.329 ZM8.436,11.220 C8.436,11.220 9.257,8.741 9.257,8.741 C9.257,8.741 10.891,10.391 10.891,10.391 C10.891,10.391 8.436,11.220 8.436,11.220 ZM3.130,7.105 C3.130,7.105 3.130,6.315 3.130,6.315 C3.130,6.315 7.043,6.315 7.043,6.315 C7.043,6.315 7.043,7.105 7.043,7.105 C7.043,7.105 3.130,7.105 3.130,7.105 ZM3.130,3.157 C3.130,3.157 10.174,3.157 10.174,3.157 C10.174,3.157 10.174,3.947 10.174,3.947 C10.174,3.947 3.130,3.947 3.130,3.947 C3.130,3.947 3.130,3.157 3.130,3.157 ZM10.174,5.526 C10.174,5.526 3.130,5.526 3.130,5.526 C3.130,5.526 3.130,4.736 3.130,4.736 C3.130,4.736 10.174,4.736 10.174,4.736 C10.174,4.736 10.174,5.526 10.174,5.526 ZM12.521,1.578 C12.521,1.142 12.171,0.789 11.739,0.789 C11.739,0.789 1.565,0.789 1.565,0.789 C1.133,0.789 0.782,1.142 0.782,1.578 C0.782,1.578 0.782,13.420 0.782,13.420 C0.782,13.856 1.133,14.210 1.565,14.210 C1.565,14.210 11.739,14.210 11.739,14.210 C12.171,14.210 12.521,13.856 12.521,13.420 C12.521,13.420 12.521,10.407 12.521,10.407 C12.521,10.407 13.304,9.617 13.304,9.617 C13.304,9.617 13.304,13.420 13.304,13.420 C13.304,14.292 12.603,14.999 11.739,14.999 C11.739,14.999 1.565,14.999 1.565,14.999 C0.701,14.999 -0.000,14.292 -0.000,13.420 C-0.000,13.420 -0.000,1.578 -0.000,1.578 C-0.000,0.706 0.701,-0.001 1.565,-0.001 C1.565,-0.001 11.739,-0.001 11.739,-0.001 C12.603,-0.001 13.304,0.706 13.304,1.578 C13.304,1.578 13.304,3.001 13.304,3.001 C13.304,3.001 12.521,3.791 12.521,3.791 C12.521,3.791 12.521,1.578 12.521,1.578 Z" id="path-1" class="cls-2" fill-rule="evenodd"/>
</svg>
