<svg xmlns="http://www.w3.org/2000/svg" xmlns:xlink="http://www.w3.org/1999/xlink" preserveAspectRatio="xMidYMid" width="16" height="13.87" viewBox="0 0 15 13">
  <defs>
    <style>

      .cls-2 {
        fill: #3598db;
      }
    </style>
  </defs>
  <path d="M14.290,4.760 C14.290,4.760 10.728,4.760 10.728,4.760 C10.728,4.760 9.088,6.237 9.088,6.237 C9.047,6.274 8.995,6.293 8.943,6.293 C8.912,6.293 8.881,6.286 8.852,6.273 C8.773,6.235 8.723,6.153 8.723,6.063 C8.723,6.063 8.723,4.760 8.723,4.760 C8.723,4.760 8.187,4.760 8.187,4.760 C7.795,4.760 7.477,4.429 7.477,4.021 C7.477,4.021 7.477,0.739 7.477,0.739 C7.477,0.332 7.795,-0.000 8.187,-0.000 C8.187,-0.000 14.290,-0.000 14.290,-0.000 C14.682,-0.000 15.000,0.332 15.000,0.739 C15.000,0.739 15.000,4.021 15.000,4.021 C15.000,4.429 14.682,4.760 14.290,4.760 ZM9.471,1.750 C9.160,1.750 8.908,2.013 8.908,2.337 C8.908,2.662 9.160,2.924 9.471,2.924 C9.782,2.924 10.035,2.662 10.035,2.337 C10.035,2.013 9.782,1.750 9.471,1.750 ZM11.238,1.750 C10.927,1.750 10.675,2.013 10.675,2.337 C10.675,2.662 10.927,2.924 11.238,2.924 C11.550,2.924 11.802,2.662 11.802,2.337 C11.802,2.013 11.549,1.750 11.238,1.750 ZM13.005,1.750 C12.694,1.750 12.442,2.013 12.442,2.337 C12.442,2.662 12.694,2.924 13.005,2.924 C13.317,2.924 13.569,2.662 13.569,2.337 C13.569,2.013 13.317,1.750 13.005,1.750 ZM4.497,8.477 C3.193,8.498 2.394,7.309 2.374,5.348 C2.360,3.917 3.121,3.174 4.497,3.174 C5.902,3.174 6.619,3.917 6.619,5.348 C6.619,8.567 4.497,8.477 4.497,8.477 ZM3.358,8.648 C3.489,8.533 3.682,8.541 3.804,8.667 C3.804,8.667 4.496,9.383 4.496,9.383 C4.496,9.383 5.187,8.667 5.187,8.667 C5.308,8.541 5.502,8.533 5.633,8.648 C5.633,8.648 6.130,9.084 6.130,9.084 C6.130,9.084 8.250,9.965 8.250,9.965 C8.933,10.248 8.934,12.769 8.992,13.000 C8.992,13.000 -0.000,13.000 -0.000,13.000 C0.059,12.768 0.058,10.249 0.741,9.965 C0.741,9.965 2.861,9.084 2.861,9.084 C2.861,9.084 3.358,8.648 3.358,8.648 Z" id="path-1" class="cls-2" fill-rule="evenodd"/>
</svg>
