<svg xmlns="http://www.w3.org/2000/svg" xmlns:xlink="http://www.w3.org/1999/xlink" preserveAspectRatio="xMidYMid" width="16" height="13" viewBox="0 0 16 13">
  <defs>
    <style>

      .cls-2 {
        fill: #3598db;
      }
    </style>
  </defs>
  <path d="M9.100,12.603 C8.855,12.841 8.497,12.992 8.096,12.992 C7.695,12.992 7.337,12.841 7.092,12.603 C7.092,12.603 0.007,12.603 0.007,12.603 C0.007,12.603 0.007,3.628 0.007,2.149 C0.007,1.865 0.305,1.691 0.783,1.594 C0.783,1.594 0.783,0.579 0.783,0.579 C0.783,0.579 0.929,0.517 0.929,0.517 C0.979,0.495 2.162,-0.004 3.742,-0.004 C5.434,-0.004 6.892,0.556 8.078,1.662 C9.264,0.556 10.721,-0.004 12.413,-0.004 C13.993,-0.004 15.177,0.495 15.228,0.517 C15.228,0.517 15.373,0.579 15.373,0.579 C15.373,0.579 15.373,1.674 15.373,1.674 C15.764,1.767 16.005,1.918 16.006,2.149 C16.006,2.668 16.006,12.603 16.006,12.603 C16.006,12.603 9.100,12.603 9.100,12.603 ZM8.001,7.741 C8.001,7.741 7.732,8.064 7.732,8.064 C7.732,8.064 7.732,2.005 7.732,2.005 C6.639,1.006 5.300,0.494 3.742,0.494 C2.558,0.494 1.596,0.797 1.243,0.925 C1.243,0.925 1.243,11.075 1.243,11.075 C1.847,10.811 2.558,10.678 3.359,10.678 C5.388,10.678 7.414,11.515 8.001,11.779 C8.001,11.779 8.001,7.741 8.001,7.741 ZM14.913,0.925 C14.559,0.797 13.594,0.494 12.413,0.494 C10.856,0.494 9.517,1.006 8.424,2.005 C8.424,2.005 8.424,8.064 8.424,8.064 C8.424,8.064 8.153,7.740 8.153,7.740 C8.153,7.740 8.153,11.774 8.153,11.774 C8.734,11.496 10.664,10.651 12.691,10.651 C13.518,10.651 14.263,10.794 14.913,11.078 C14.913,11.078 14.913,0.925 14.913,0.925 ZM9.453,10.013 C9.453,10.013 9.272,9.661 9.272,9.661 C9.365,9.605 11.574,8.292 14.114,9.023 C14.114,9.023 14.019,9.414 14.019,9.414 C11.627,8.724 9.475,10.001 9.453,10.013 ZM9.453,8.890 C9.453,8.890 9.272,8.537 9.272,8.537 C9.365,8.481 11.574,7.168 14.114,7.900 C14.114,7.900 14.019,8.291 14.019,8.291 C11.627,7.601 9.475,8.877 9.453,8.890 ZM9.453,7.769 C9.453,7.769 9.272,7.416 9.272,7.416 C9.365,7.359 11.574,6.047 14.114,6.778 C14.114,6.778 14.019,7.169 14.019,7.169 C11.627,6.480 9.475,7.756 9.453,7.769 ZM9.453,6.677 C9.453,6.677 9.272,6.324 9.272,6.324 C9.365,6.268 11.574,4.955 14.114,5.687 C14.114,5.687 14.019,6.078 14.019,6.078 C11.627,5.388 9.475,6.664 9.453,6.677 ZM9.453,5.499 C9.453,5.499 9.272,5.146 9.272,5.146 C9.365,5.090 11.574,3.778 14.114,4.508 C14.114,4.508 14.019,4.899 14.019,4.899 C11.627,4.209 9.475,5.486 9.453,5.499 ZM9.453,4.424 C9.453,4.424 9.272,4.071 9.272,4.071 C9.365,4.015 11.574,2.702 14.114,3.434 C14.114,3.434 14.019,3.825 14.019,3.825 C11.627,3.135 9.475,4.411 9.453,4.424 ZM9.453,3.280 C9.453,3.280 9.272,2.928 9.272,2.928 C9.365,2.872 11.574,1.559 14.114,2.290 C14.114,2.290 14.019,2.681 14.019,2.681 C11.627,1.991 9.475,3.267 9.453,3.280 ZM2.151,8.994 C4.691,8.262 6.901,9.575 6.993,9.632 C6.993,9.632 6.813,9.984 6.813,9.984 C6.791,9.971 4.639,8.694 2.246,9.384 C2.246,9.384 2.151,8.994 2.151,8.994 ZM2.246,8.260 C2.246,8.260 2.151,7.869 2.151,7.869 C4.691,7.138 6.901,8.450 6.993,8.507 C6.993,8.507 6.813,8.859 6.813,8.859 C6.791,8.847 4.639,7.570 2.246,8.260 ZM2.246,7.139 C2.246,7.139 2.151,6.748 2.151,6.748 C4.691,6.017 6.901,7.330 6.993,7.385 C6.993,7.385 6.813,7.739 6.813,7.739 C6.791,7.726 4.639,6.450 2.246,7.139 ZM2.246,6.047 C2.246,6.047 2.151,5.657 2.151,5.657 C4.691,4.924 6.901,6.237 6.993,6.295 C6.993,6.295 6.813,6.647 6.813,6.647 C6.791,6.634 4.639,5.358 2.246,6.047 ZM2.246,4.869 C2.246,4.869 2.151,4.479 2.151,4.479 C4.691,3.747 6.901,5.060 6.993,5.116 C6.993,5.116 6.813,5.469 6.813,5.469 C6.791,5.456 4.639,4.180 2.246,4.869 ZM2.246,3.794 C2.246,3.794 2.151,3.404 2.151,3.404 C4.691,2.672 6.901,3.985 6.993,4.041 C6.993,4.041 6.813,4.393 6.813,4.393 C6.791,4.381 4.639,3.104 2.246,3.794 ZM2.246,2.651 C2.246,2.651 2.151,2.260 2.151,2.260 C4.691,1.528 6.901,2.841 6.993,2.897 C6.993,2.897 6.813,3.250 6.813,3.250 C6.791,3.237 4.639,1.961 2.246,2.651 Z" id="path-1" class="cls-2" fill-rule="evenodd"/>
</svg>
