<svg xmlns="http://www.w3.org/2000/svg" xmlns:xlink="http://www.w3.org/1999/xlink" preserveAspectRatio="xMidYMid" width="16" height="11" viewBox="0 0 16 11">
  <defs>
    <style>

      .cls-2 {
        fill: #3598db;
      }
    </style>
  </defs>
  <path d="M15.313,10.880 C15.086,10.880 14.625,10.704 14.625,10.486 C14.625,10.486 14.900,6.157 14.900,6.157 C14.556,5.421 13.544,4.616 13.666,2.629 C13.747,1.327 14.710,0.364 15.012,0.127 C15.042,0.096 15.078,0.070 15.117,0.050 C15.132,0.040 15.143,0.033 15.143,0.033 C15.143,0.033 15.143,0.037 15.143,0.037 C15.195,0.014 15.252,0.000 15.313,0.000 C15.541,0.000 15.726,0.177 15.726,0.394 C15.726,0.394 16.001,10.487 16.001,10.487 C16.001,10.704 15.541,10.880 15.313,10.880 ZM8.666,10.068 C6.062,10.068 3.951,8.055 3.951,5.571 C3.951,3.088 6.062,1.075 8.666,1.075 C11.270,1.075 13.381,3.088 13.381,5.571 C13.381,8.055 11.270,10.068 8.666,10.068 ZM8.666,1.764 C6.465,1.764 4.674,3.472 4.674,5.572 C4.674,7.671 6.465,9.380 8.666,9.380 C10.868,9.380 12.658,7.671 12.658,5.572 C12.658,3.472 10.868,1.764 8.666,1.764 ZM8.666,9.117 C6.616,9.117 4.949,7.527 4.949,5.571 C4.949,3.617 6.616,2.026 8.666,2.026 C10.716,2.026 12.383,3.617 12.383,5.571 C12.383,7.527 10.716,9.117 8.666,9.117 ZM2.793,4.623 C2.711,4.671 2.618,4.706 2.521,4.735 C2.521,4.735 2.796,10.669 2.796,10.669 C2.796,10.852 2.336,11.000 2.109,11.000 C1.881,11.000 1.421,10.852 1.421,10.669 C1.421,10.669 1.696,4.766 1.696,4.766 C1.603,4.745 1.513,4.716 1.432,4.677 C1.432,4.677 0.720,4.338 0.720,4.338 C0.309,4.142 -0.001,3.664 -0.001,3.227 C-0.001,3.227 -0.001,0.622 -0.001,0.622 C-0.001,0.405 0.184,0.229 0.412,0.229 C0.640,0.229 0.825,0.405 0.825,0.622 C0.825,0.622 0.825,2.920 0.825,2.920 C0.825,2.920 1.053,2.920 1.053,2.920 C1.053,2.920 1.053,0.537 1.053,0.537 C1.053,0.320 1.238,0.144 1.466,0.144 C1.694,0.144 1.879,0.320 1.879,0.537 C1.879,0.537 1.879,2.920 1.879,2.920 C1.879,2.920 2.109,2.920 2.109,2.920 C2.109,2.920 2.109,0.537 2.109,0.537 C2.109,0.320 2.294,0.144 2.521,0.144 C2.749,0.144 2.934,0.320 2.934,0.537 C2.934,0.537 2.934,2.920 2.934,2.920 C2.934,2.920 3.163,2.920 3.163,2.920 C3.163,2.920 3.163,0.537 3.163,0.537 C3.163,0.320 3.348,0.144 3.576,0.144 C3.804,0.144 3.988,0.320 3.988,0.537 C3.988,0.537 3.988,3.183 3.988,3.183 C3.988,3.608 3.701,4.095 3.321,4.317 C3.321,4.317 2.793,4.623 2.793,4.623 Z" id="path-1" class="cls-2" fill-rule="evenodd"/>
</svg>
