<svg xmlns="http://www.w3.org/2000/svg" xmlns:xlink="http://www.w3.org/1999/xlink" preserveAspectRatio="xMidYMid" width="25" height="26" viewBox="0 0 25 26">
  <defs>
    <style>

      .cls-2 {
        fill: #3598db;
      }
    </style>
  </defs>
  <path d="M19.538,22.815 C19.182,22.965 18.847,23.107 18.527,23.225 C17.831,23.483 16.960,23.609 15.864,23.609 C15.438,23.609 14.987,23.590 14.487,23.552 C14.402,23.678 14.296,23.790 14.170,23.883 C13.926,24.064 13.635,24.160 13.331,24.160 C12.798,24.160 12.359,23.801 12.057,23.450 C12.057,23.450 12.005,23.627 12.005,23.627 C11.920,23.918 11.746,24.167 11.502,24.347 C11.258,24.528 10.968,24.624 10.664,24.624 C9.617,24.624 8.934,23.243 8.934,23.243 C8.934,23.243 8.782,24.409 8.192,24.836 C7.945,25.014 7.657,25.113 7.353,25.113 C6.907,25.113 6.513,24.899 6.231,24.559 C4.614,22.612 3.963,19.395 3.963,19.395 C3.963,19.395 2.810,20.365 2.162,19.855 C0.958,18.907 1.884,14.496 2.453,12.985 C2.453,12.985 2.768,12.256 2.768,12.256 C2.972,11.765 3.282,11.427 3.780,11.208 C4.940,10.700 5.921,10.264 6.869,9.842 C8.022,9.330 9.110,8.846 10.494,8.243 C10.931,8.052 11.386,7.956 11.845,7.956 C13.283,7.956 14.478,8.869 15.119,9.360 C15.119,9.360 20.773,13.870 21.891,14.205 C23.020,14.542 24.280,14.602 24.969,14.605 C24.969,14.605 24.969,21.452 24.969,21.452 C22.579,21.528 20.901,22.238 19.538,22.815 ZM5.173,15.793 C5.173,15.793 4.353,18.187 4.353,18.187 C4.353,18.187 6.309,15.415 6.309,15.415 C6.309,15.415 5.173,15.793 5.173,15.793 ZM17.246,2.161 C17.335,2.288 17.399,2.437 17.433,2.605 C17.754,4.155 15.482,7.417 15.222,7.784 C15.092,7.968 14.840,8.017 14.650,7.900 C14.643,7.896 14.637,7.892 14.631,7.887 C14.438,7.755 14.392,7.493 14.526,7.303 C15.314,6.192 16.452,4.255 16.602,3.180 C16.602,3.180 13.729,7.725 13.729,7.725 C13.171,7.488 12.534,7.274 11.845,7.274 C11.324,7.274 10.810,7.417 10.315,7.610 C10.315,7.610 15.002,0.196 15.002,0.196 C15.125,-0.000 15.387,-0.060 15.586,0.062 C15.586,0.062 17.375,1.163 17.375,1.163 C17.574,1.285 17.635,1.544 17.511,1.740 C17.511,1.740 17.246,2.161 17.246,2.161 ZM2.296,20.520 C2.347,20.523 2.398,20.524 2.448,20.524 C2.846,20.524 3.224,20.442 3.565,20.285 C3.728,20.828 3.959,21.504 4.267,22.204 C4.267,22.204 3.679,23.134 3.679,23.134 C3.659,23.165 3.634,23.194 3.607,23.220 C3.607,23.220 0.680,25.890 0.680,25.890 C0.539,26.018 0.329,26.038 0.167,25.938 C0.005,25.838 -0.069,25.643 -0.015,25.462 C-0.015,25.462 1.123,21.691 1.123,21.691 C1.134,21.656 1.149,21.621 1.169,21.589 C1.169,21.589 1.881,20.464 1.881,20.464 C2.016,20.494 2.154,20.513 2.296,20.520 Z" id="path-1" class="cls-2" fill-rule="evenodd"/>
</svg>
