<svg xmlns="http://www.w3.org/2000/svg" xmlns:xlink="http://www.w3.org/1999/xlink" preserveAspectRatio="xMidYMid" width="15" height="13" viewBox="0 0 15 13">
  <defs>
    <style>

      .cls-2 {
        fill: #3598db;
      }
    </style>
  </defs>
  <path d="M12.350,12.306 C12.350,12.306 12.943,12.997 12.943,12.997 C12.943,12.997 1.937,13.001 1.937,13.001 C1.937,13.001 2.072,12.150 2.072,12.150 C2.072,12.150 3.281,11.479 3.281,11.479 C3.281,11.479 3.093,10.055 3.093,10.055 C3.093,10.055 4.697,9.916 4.697,9.916 C4.697,9.916 4.780,9.173 4.780,9.173 C4.780,9.173 6.643,9.014 6.643,9.014 C6.643,9.014 6.750,7.682 6.750,7.682 C6.750,7.682 7.070,7.255 7.070,7.255 C7.070,7.255 7.815,7.416 7.815,7.416 C7.815,7.416 7.901,8.124 7.901,8.124 C7.901,8.124 9.093,8.050 9.093,8.050 C9.093,8.050 9.168,9.391 9.168,9.391 C9.168,9.391 10.509,9.914 10.509,9.914 C10.509,9.914 10.584,10.957 10.584,10.957 C10.699,11.117 11.284,10.860 11.387,11.009 C11.490,11.160 11.293,10.863 11.387,11.009 C11.255,11.627 12.169,11.732 12.169,11.732 C12.169,11.732 12.350,12.306 12.350,12.306 ZM10.893,7.833 C10.893,7.833 10.331,7.643 10.331,7.643 C10.141,7.791 10.068,7.943 10.124,8.103 C10.124,8.103 10.404,8.427 10.404,8.427 C10.404,8.427 10.829,8.287 10.829,8.287 C10.982,8.235 11.035,8.138 10.988,8.002 C10.975,7.955 10.943,7.897 10.893,7.833 ZM10.535,6.340 C10.411,6.280 10.283,6.270 10.144,6.316 C10.070,6.340 9.995,6.389 9.910,6.462 C9.910,6.462 9.932,7.126 9.932,7.126 C9.932,7.126 10.577,7.047 10.577,7.047 C10.746,6.854 10.810,6.698 10.771,6.578 C10.736,6.482 10.660,6.402 10.535,6.340 ZM12.512,7.264 C12.512,7.264 12.516,7.277 12.516,7.277 C12.492,7.285 12.375,7.257 12.164,7.192 C12.062,7.158 11.960,7.119 11.857,7.080 C11.711,7.128 11.621,7.274 11.586,7.514 C11.551,7.755 11.574,7.997 11.654,8.238 C11.675,8.304 11.727,8.374 11.807,8.457 C11.807,8.457 11.943,8.585 11.943,8.585 C11.943,8.585 12.182,8.574 12.182,8.574 C12.449,8.457 12.602,8.393 12.643,8.378 C12.738,8.322 12.805,8.199 12.837,8.017 C12.870,7.833 12.857,7.660 12.800,7.492 C12.736,7.298 12.643,7.221 12.512,7.264 ZM11.473,9.246 C11.473,9.246 11.333,9.749 11.333,9.749 C11.437,9.841 11.586,9.904 11.785,9.933 C11.785,9.933 12.256,9.776 12.256,9.776 C12.256,9.776 12.018,9.062 12.018,9.062 C12.018,9.062 11.473,9.246 11.473,9.246 ZM13.869,8.334 C13.869,8.334 13.728,8.839 13.728,8.839 C13.832,8.930 13.980,8.992 14.182,9.023 C14.182,9.023 14.652,8.867 14.652,8.867 C14.652,8.867 14.413,8.152 14.413,8.152 C14.413,8.152 13.869,8.334 13.869,8.334 ZM14.216,12.128 C14.216,12.128 14.076,12.634 14.076,12.634 C14.180,12.725 14.329,12.787 14.527,12.818 C14.527,12.818 15.000,12.662 15.000,12.662 C15.000,12.662 14.762,11.947 14.762,11.947 C14.762,11.947 14.216,12.128 14.216,12.128 ZM14.083,9.885 C13.810,9.581 13.473,9.496 13.070,9.630 C13.070,9.630 13.010,9.651 13.010,9.651 C12.820,9.819 12.662,10.065 12.531,10.382 C12.402,10.686 12.366,10.925 12.424,11.099 C12.430,11.113 12.555,11.226 12.796,11.444 C13.055,11.656 13.197,11.796 13.228,11.867 C13.228,11.867 13.991,11.613 13.991,11.613 C14.079,11.584 14.165,11.542 14.246,11.488 C14.329,11.435 14.396,11.373 14.454,11.306 C14.510,11.240 14.551,11.171 14.577,11.104 C14.602,11.037 14.605,10.973 14.584,10.912 C14.418,10.415 14.251,10.074 14.083,9.885 ZM6.295,6.644 C6.167,7.406 5.776,8.110 5.776,8.110 C5.776,8.110 4.972,8.171 4.226,7.968 C3.481,7.765 2.335,5.876 2.335,5.876 C2.335,5.876 3.511,5.122 3.511,5.122 C3.511,5.122 2.096,2.779 2.096,2.779 C2.096,2.779 0.994,2.538 0.994,2.538 C0.994,2.538 0.503,1.771 0.503,1.771 C0.503,1.771 0.289,1.908 0.289,1.908 C0.289,1.908 -0.000,1.457 -0.000,1.457 C-0.000,1.457 2.277,-0.002 2.277,-0.002 C2.277,-0.002 2.566,0.448 2.566,0.448 C2.566,0.448 2.352,0.585 2.352,0.585 C2.352,0.585 2.845,1.353 2.845,1.353 C2.845,1.353 2.601,2.467 2.601,2.467 C2.601,2.467 4.012,4.802 4.012,4.802 C4.012,4.802 5.183,4.050 5.183,4.050 C5.183,4.050 6.422,5.882 6.295,6.644 ZM1.232,2.197 C1.232,2.197 2.220,2.414 2.220,2.414 C2.220,2.414 2.436,1.427 2.436,1.427 C2.436,1.427 2.030,0.792 2.030,0.792 C2.030,0.792 0.826,1.564 0.826,1.564 C0.826,1.564 1.232,2.197 1.232,2.197 Z" id="path-1" class="cls-2" fill-rule="evenodd"/>
</svg>
