<svg xmlns="http://www.w3.org/2000/svg" xmlns:xlink="http://www.w3.org/1999/xlink" preserveAspectRatio="xMidYMid" width="13" height="15" viewBox="0 0 13 15">
  <defs>
    <style>

      .cls-2 {
        fill: #3598db;
      }
    </style>
  </defs>
  <path d="M12.391,8.148 C12.648,7.943 12.993,7.441 12.998,6.915 C13.002,6.492 12.792,5.937 11.774,5.692 C11.590,5.648 11.398,5.627 11.186,5.627 C10.952,5.627 10.730,5.653 10.513,5.677 C10.324,5.700 10.145,5.720 9.983,5.720 C9.567,5.720 9.229,5.585 8.935,4.925 C8.847,4.729 8.743,4.183 9.028,2.734 C9.219,1.763 9.251,0.781 8.200,0.179 C7.864,-0.013 7.530,-0.053 7.295,0.070 C7.069,0.188 6.935,0.429 6.896,0.786 C6.885,0.887 6.891,0.999 6.900,1.146 C6.927,1.615 6.973,2.401 6.255,3.529 C5.311,4.582 4.817,5.580 4.717,5.792 C4.261,6.063 3.846,6.276 3.443,6.482 C3.010,6.704 2.561,6.932 2.065,7.233 C2.065,7.233 0.276,7.261 0.276,7.261 C0.276,7.261 0.057,7.261 0.057,7.261 C0.057,7.261 0.057,13.303 0.057,13.303 C0.057,13.303 0.002,13.303 0.002,13.303 C0.002,13.303 0.002,13.749 0.002,13.749 C0.002,13.749 0.056,13.749 0.056,13.749 C0.056,13.749 0.646,13.749 0.646,13.749 C0.646,13.749 1.968,13.749 1.968,13.749 C1.968,13.749 2.940,14.038 2.940,14.038 C4.431,14.833 6.269,15.000 7.549,15.000 C8.319,15.000 8.848,14.940 8.940,14.929 C9.018,14.935 9.092,14.938 9.161,14.938 C9.638,14.938 10.047,14.795 10.379,14.514 C10.943,14.034 11.118,13.296 11.169,12.982 C11.663,12.780 11.988,12.474 12.136,12.071 C12.318,11.576 12.178,11.073 12.069,10.799 C12.502,10.557 12.770,10.233 12.868,9.837 C13.069,9.026 12.468,8.255 12.461,8.245 C12.441,8.223 12.413,8.187 12.391,8.148 Z" id="path-1" class="cls-2" fill-rule="evenodd"/>
</svg>
