<svg xmlns="http://www.w3.org/2000/svg" xmlns:xlink="http://www.w3.org/1999/xlink" preserveAspectRatio="xMidYMid" width="17" height="15" viewBox="0 0 17 15">
  <defs>
    <style>

      .cls-2 {
        fill: #3598db;
      }
    </style>
  </defs>
  <path d="M13.321,1.713 C13.321,1.713 14.998,1.713 14.998,1.713 C14.998,1.713 14.998,5.145 14.998,5.145 C14.998,5.145 13.329,3.736 13.329,3.736 C13.329,3.736 13.321,1.713 13.321,1.713 ZM15.156,7.542 C15.156,7.542 8.640,1.727 8.640,1.727 C8.640,1.727 1.690,7.578 1.690,7.578 C0.527,8.556 -0.006,7.578 -0.006,7.578 C-0.006,7.578 8.640,-0.001 8.640,-0.001 C8.640,-0.001 17.006,7.542 17.006,7.542 C17.006,7.542 16.502,8.508 15.156,7.542 ZM14.503,8.066 C14.503,8.066 14.503,14.513 14.503,14.513 C14.503,14.513 14.525,14.984 14.053,14.984 C13.483,14.984 9.855,14.984 9.855,14.984 C9.855,14.984 9.863,11.498 9.863,11.498 C9.863,11.498 9.904,10.922 9.239,10.922 C9.239,10.922 7.460,10.922 7.460,10.922 C6.897,10.922 6.958,11.498 6.958,11.498 C6.958,11.498 6.951,14.995 6.951,14.995 C6.951,14.995 3.126,15.000 2.663,15.000 C2.292,15.000 2.307,14.622 2.307,14.622 C2.307,14.622 2.307,8.066 2.307,8.066 C2.307,8.066 8.588,2.828 8.588,2.828 C8.588,2.828 14.503,8.066 14.503,8.066 Z" id="path-1" class="cls-2" fill-rule="evenodd"/>
</svg>
