<svg xmlns="http://www.w3.org/2000/svg" xmlns:xlink="http://www.w3.org/1999/xlink" preserveAspectRatio="xMidYMid" width="14" height="12" viewBox="0 0 14 12">
  <defs>
    <style>

      .cls-2 {
        fill: #3598db;
      }
    </style>
  </defs>
  <path d="M12.988,7.525 C12.988,7.525 12.194,7.525 12.194,7.525 C12.194,7.525 11.656,5.521 11.656,5.521 C11.656,5.521 11.129,7.525 11.129,7.525 C11.129,7.525 10.327,7.525 10.327,7.525 C10.327,7.525 9.339,4.410 9.339,4.410 C9.339,4.410 10.141,4.410 10.141,4.410 C10.141,4.410 10.724,6.451 10.724,6.451 C10.724,6.451 11.262,4.410 11.262,4.410 C11.262,4.410 12.059,4.410 12.059,4.410 C12.059,4.410 12.580,6.451 12.580,6.451 C12.580,6.451 13.175,4.410 13.175,4.410 C13.175,4.410 13.991,4.410 13.991,4.410 C13.991,4.410 12.988,7.525 12.988,7.525 ZM6.992,0.000 C9.403,0.000 11.476,1.424 12.431,3.473 C12.431,3.473 1.555,3.473 1.555,3.473 C2.509,1.424 4.582,0.000 6.992,0.000 ZM2.713,4.410 C2.713,4.410 3.235,6.451 3.235,6.451 C3.235,6.451 3.829,4.410 3.829,4.410 C3.829,4.410 4.645,4.410 4.645,4.410 C4.645,4.410 3.642,7.525 3.642,7.525 C3.642,7.525 2.849,7.525 2.849,7.525 C2.849,7.525 2.310,5.521 2.310,5.521 C2.310,5.521 1.784,7.525 1.784,7.525 C1.784,7.525 0.981,7.525 0.981,7.525 C0.981,7.525 -0.005,4.410 -0.005,4.410 C-0.005,4.410 0.796,4.410 0.796,4.410 C0.796,4.410 1.380,6.451 1.380,6.451 C1.380,6.451 1.918,4.410 1.918,4.410 C1.918,4.410 2.713,4.410 2.713,4.410 ZM6.984,5.521 C6.984,5.521 6.457,7.525 6.457,7.525 C6.457,7.525 5.654,7.525 5.654,7.525 C5.654,7.525 4.666,4.410 4.666,4.410 C4.666,4.410 5.467,4.410 5.467,4.410 C5.467,4.410 6.053,6.451 6.053,6.451 C6.053,6.451 6.591,4.410 6.591,4.410 C6.591,4.410 7.387,4.410 7.387,4.410 C7.387,4.410 7.907,6.451 7.907,6.451 C7.907,6.451 8.505,4.410 8.505,4.410 C8.505,4.410 9.318,4.410 9.318,4.410 C9.318,4.410 8.316,7.525 8.316,7.525 C8.316,7.525 7.524,7.525 7.524,7.525 C7.524,7.525 6.984,5.521 6.984,5.521 ZM6.992,12.000 C4.582,12.000 2.510,10.576 1.557,8.527 C1.557,8.527 12.430,8.527 12.430,8.527 C11.474,10.576 9.403,12.000 6.992,12.000 Z" id="path-1" class="cls-2" fill-rule="evenodd"/>
</svg>
