<svg xmlns="http://www.w3.org/2000/svg" xmlns:xlink="http://www.w3.org/1999/xlink" preserveAspectRatio="xMidYMid" width="45" height="45" viewBox="0 0 45 45">
  <defs>
    <style>

      .cls-2 {
        fill: #dc4a37;
      }
    </style>
  </defs>
  <path d="M36.511,-0.000 C36.511,-0.000 8.426,-0.000 8.426,-0.000 C3.771,-0.000 -0.000,3.745 -0.000,8.368 C-0.000,8.368 -0.000,36.263 -0.000,36.263 C-0.000,40.886 3.771,44.631 8.426,44.631 C8.426,44.631 36.511,44.631 36.511,44.631 C41.165,44.631 44.936,40.886 44.936,36.263 C44.936,36.263 44.936,8.368 44.936,8.368 C44.936,3.745 41.165,-0.000 36.511,-0.000 ZM12.118,36.198 C10.100,36.198 8.460,34.580 8.460,32.575 C8.460,30.583 10.100,28.946 12.118,28.946 C14.144,28.946 15.781,30.583 15.784,32.575 C15.784,34.580 14.147,36.198 12.118,36.198 ZM21.313,36.230 C21.313,32.806 19.974,29.589 17.548,27.184 C15.120,24.767 11.894,23.434 8.465,23.434 C8.465,23.434 8.465,18.201 8.465,18.201 C18.466,18.201 26.609,26.287 26.609,36.230 C26.609,36.230 21.313,36.230 21.313,36.230 ZM30.663,36.225 C30.663,24.059 20.707,14.160 8.471,14.160 C8.471,14.160 8.471,8.927 8.471,8.927 C23.620,8.927 35.948,21.177 35.948,36.225 C35.948,36.225 30.663,36.225 30.663,36.225 Z" id="path-1" class="cls-2" fill-rule="evenodd"/>
</svg>
