<svg xmlns="http://www.w3.org/2000/svg" xmlns:xlink="http://www.w3.org/1999/xlink" preserveAspectRatio="xMidYMid" width="45" height="45" viewBox="0 0 45 45">
  <defs>
    <style>

      .cls-2 {
        fill: #dc4a37;
      }
    </style>
  </defs>
  <path d="M36.512,-0.007 C36.512,-0.007 8.427,-0.007 8.427,-0.007 C3.773,-0.007 0.001,3.739 0.001,8.362 C0.001,8.362 0.001,36.256 0.001,36.256 C0.001,40.879 3.773,44.625 8.427,44.625 C8.427,44.625 36.512,44.625 36.512,44.625 C41.166,44.625 44.937,40.879 44.937,36.256 C44.937,36.256 44.937,8.362 44.937,8.362 C44.937,3.739 41.166,-0.007 36.512,-0.007 ZM16.201,37.324 C11.227,37.324 7.031,35.314 7.031,32.100 C7.031,28.839 10.860,25.690 15.833,25.692 C15.833,25.692 17.386,25.679 17.386,25.679 C16.707,25.022 16.167,24.216 16.167,23.221 C16.167,22.630 16.359,22.064 16.622,21.559 C16.622,21.559 15.794,21.587 15.794,21.587 C11.707,21.587 8.971,18.700 8.971,15.120 C8.971,11.620 12.749,8.599 16.765,8.599 C16.765,8.599 25.725,8.599 25.725,8.599 C25.725,8.599 23.713,10.038 23.713,10.038 C23.713,10.038 20.874,10.038 20.874,10.038 C22.759,10.758 23.761,12.939 23.761,15.176 C23.761,17.054 22.713,18.671 21.234,19.821 C19.787,20.944 19.515,21.414 19.515,22.368 C19.515,23.182 21.065,24.565 21.874,25.137 C24.241,26.798 25.004,28.343 25.004,30.917 C25.004,34.132 21.871,37.324 16.201,37.324 ZM39.320,19.573 C39.320,19.573 33.703,19.573 33.703,19.573 C33.703,19.573 33.703,25.142 33.703,25.142 C33.703,25.142 30.898,25.142 30.898,25.142 C30.898,25.142 30.898,19.573 30.898,19.573 C30.898,19.573 25.278,19.573 25.278,19.573 C25.278,19.573 25.278,16.730 25.278,16.730 C25.278,16.730 30.898,16.730 30.898,16.730 C30.898,16.730 30.898,11.151 30.898,11.151 C30.898,11.151 33.703,11.151 33.703,11.151 C33.703,11.151 33.703,16.730 33.703,16.730 C33.703,16.730 39.320,16.730 39.320,16.730 C39.320,16.730 39.320,19.573 39.320,19.573 ZM20.543,15.349 C20.144,12.342 17.951,9.927 15.644,9.857 C13.339,9.791 11.792,12.091 12.190,15.104 C12.589,18.114 14.783,20.611 17.091,20.677 C19.393,20.747 20.944,18.362 20.543,15.349 ZM19.012,26.880 C18.332,26.662 17.582,26.532 16.782,26.523 C13.345,26.488 10.266,28.604 10.266,31.151 C10.266,33.750 12.749,35.911 16.187,35.911 C21.020,35.911 22.702,33.881 22.702,31.285 C22.702,30.972 22.663,30.667 22.593,30.367 C22.217,28.896 20.877,28.166 19.012,26.880 Z" id="path-1" class="cls-2" fill-rule="evenodd"/>
</svg>
