<svg xmlns="http://www.w3.org/2000/svg" xmlns:xlink="http://www.w3.org/1999/xlink" preserveAspectRatio="xMidYMid" width="18" height="17" viewBox="0 0 18 17">
  <defs>
    <style>

      .cls-2 {
        fill: #3598db;
      }
    </style>
  </defs>
  <path d="M16.143,12.950 C15.623,13.313 10.674,16.214 9.976,16.613 C9.157,17.080 8.944,17.132 7.700,16.742 C6.878,16.484 5.703,16.103 4.857,15.709 C4.102,15.358 3.563,15.348 2.990,15.709 C2.990,15.709 2.032,16.287 2.032,16.287 C2.032,16.287 -0.000,11.816 -0.000,11.816 C-0.000,11.816 1.670,11.031 2.684,10.649 C4.324,10.029 4.819,10.320 5.731,10.885 C6.116,11.123 7.371,12.032 7.371,12.032 C7.371,12.032 8.152,12.757 9.766,12.757 C10.756,12.757 11.385,12.862 11.385,13.465 C11.385,14.124 10.146,14.173 10.141,14.173 C10.141,14.173 7.810,14.173 7.810,14.173 C6.775,14.173 5.320,13.581 5.320,13.581 C5.320,13.581 6.552,14.894 7.810,14.894 C7.810,14.894 10.148,14.894 10.148,14.894 C10.823,14.880 12.099,14.555 12.099,13.465 C12.099,12.048 10.798,12.048 9.150,12.048 C9.022,12.048 8.905,12.027 8.790,12.003 C8.853,11.970 8.915,11.937 8.994,11.893 C9.288,11.729 9.682,11.494 10.130,11.218 C11.304,10.496 11.908,10.405 12.495,11.171 C12.903,10.760 13.417,10.647 13.857,10.647 C14.353,10.647 14.773,10.972 14.655,11.496 C15.929,10.750 16.558,11.050 16.837,11.410 C17.207,11.886 16.954,12.382 16.143,12.950 ZM5.665,6.024 C5.665,4.263 7.105,2.835 8.882,2.835 C10.659,2.835 12.099,4.263 12.099,6.024 C12.099,7.785 10.659,9.213 8.882,9.213 C7.106,9.213 5.665,7.785 5.665,6.024 ZM7.638,5.543 C7.638,5.543 8.397,5.543 8.397,5.543 C8.397,5.543 8.397,7.468 8.397,7.468 C8.397,7.468 9.367,7.468 9.367,7.468 C9.367,7.468 9.367,4.580 9.367,4.580 C9.367,4.580 8.609,4.580 8.609,4.580 C8.609,4.580 7.638,5.543 7.638,5.543 ZM11.365,2.106 C11.365,2.106 10.774,2.106 10.774,2.106 C10.774,2.106 11.531,1.357 11.531,1.357 C11.531,1.357 12.121,1.357 12.121,1.357 C12.121,1.357 12.121,3.604 12.121,3.604 C12.121,3.604 11.962,3.604 11.962,3.604 C12.245,3.958 12.467,4.360 12.614,4.798 C13.564,4.446 14.245,3.546 14.245,2.480 C14.244,1.111 13.124,0.000 11.742,0.000 C10.476,0.000 9.440,0.936 9.274,2.146 C10.063,2.223 10.783,2.532 11.365,3.003 C11.365,3.003 11.365,2.106 11.365,2.106 C11.365,2.106 11.365,2.106 11.365,2.106 Z" id="path-1" class="cls-2" fill-rule="evenodd"/>
</svg>
