<svg xmlns="http://www.w3.org/2000/svg" xmlns:xlink="http://www.w3.org/1999/xlink" preserveAspectRatio="xMidYMid" width="15" height="15" viewBox="0 0 15 15">
  <defs>
    <style>

      .cls-2 {
        fill: #3598db;
      }
    </style>
  </defs>
  <path d="M13.125,15.000 C13.125,15.000 1.875,15.000 1.875,15.000 C0.840,15.000 -0.000,14.160 -0.000,13.125 C-0.000,13.125 -0.000,3.750 -0.000,3.750 C-0.000,2.972 0.629,2.344 1.406,2.344 C1.406,2.344 1.875,2.344 1.875,2.344 C1.875,2.344 1.875,1.406 1.875,1.406 C1.875,0.629 2.504,-0.000 3.281,-0.000 C3.281,-0.000 13.594,-0.000 13.594,-0.000 C14.370,-0.000 15.000,0.629 15.000,1.406 C15.000,1.406 15.000,13.125 15.000,13.125 C15.000,14.160 14.160,15.000 13.125,15.000 ZM14.062,1.406 C14.062,1.147 13.852,0.937 13.594,0.937 C13.594,0.937 3.281,0.937 3.281,0.937 C3.023,0.937 2.812,1.147 2.812,1.406 C2.812,1.406 2.812,12.656 2.812,12.656 C2.812,12.915 2.603,13.125 2.344,13.125 C2.084,13.125 1.875,12.915 1.875,12.656 C1.875,12.656 1.875,3.281 1.875,3.281 C1.875,3.281 1.406,3.281 1.406,3.281 C1.148,3.281 0.937,3.491 0.937,3.750 C0.937,3.750 0.937,13.125 0.937,13.125 C0.937,13.641 1.358,14.062 1.875,14.062 C1.875,14.062 13.125,14.062 13.125,14.062 C13.641,14.062 14.062,13.641 14.062,13.125 C14.062,13.125 14.062,1.406 14.062,1.406 ZM12.891,13.127 C12.891,13.127 9.141,13.127 9.141,13.127 C9.011,13.127 8.906,13.022 8.906,12.892 C8.906,12.763 9.011,12.658 9.141,12.658 C9.141,12.658 12.891,12.658 12.891,12.658 C13.020,12.658 13.125,12.763 13.125,12.892 C13.125,13.022 13.020,13.127 12.891,13.127 ZM12.891,11.720 C12.891,11.720 9.141,11.720 9.141,11.720 C9.011,11.720 8.906,11.616 8.906,11.486 C8.906,11.357 9.011,11.251 9.141,11.251 C9.141,11.251 12.891,11.251 12.891,11.251 C13.020,11.251 13.125,11.357 13.125,11.486 C13.125,11.616 13.020,11.720 12.891,11.720 ZM12.891,10.314 C12.891,10.314 9.141,10.314 9.141,10.314 C9.011,10.314 8.906,10.210 8.906,10.080 C8.906,9.951 9.011,9.845 9.141,9.845 C9.141,9.845 12.891,9.845 12.891,9.845 C13.020,9.845 13.125,9.951 13.125,10.080 C13.125,10.210 13.020,10.314 12.891,10.314 ZM12.891,8.908 C12.891,8.908 3.984,8.908 3.984,8.908 C3.855,8.908 3.750,8.803 3.750,8.674 C3.750,8.544 3.855,8.439 3.984,8.439 C3.984,8.439 12.891,8.439 12.891,8.439 C13.020,8.439 13.125,8.544 13.125,8.674 C13.125,8.803 13.020,8.908 12.891,8.908 ZM12.891,7.502 C12.891,7.502 3.984,7.502 3.984,7.502 C3.855,7.502 3.750,7.397 3.750,7.267 C3.750,7.138 3.855,7.033 3.984,7.033 C3.984,7.033 12.891,7.033 12.891,7.033 C13.020,7.033 13.125,7.138 13.125,7.267 C13.125,7.397 13.020,7.502 12.891,7.502 ZM12.890,6.096 C12.890,6.096 9.140,6.096 9.140,6.096 C9.011,6.096 8.905,5.991 8.905,5.861 C8.905,5.732 9.011,5.627 9.140,5.627 C9.140,5.627 12.890,5.627 12.890,5.627 C13.020,5.627 13.124,5.732 13.124,5.861 C13.124,5.991 13.020,6.096 12.890,6.096 ZM12.890,4.690 C12.890,4.690 9.140,4.690 9.140,4.690 C9.011,4.690 8.905,4.585 8.905,4.455 C8.905,4.326 9.011,4.221 9.140,4.221 C9.140,4.221 12.890,4.221 12.890,4.221 C13.020,4.221 13.124,4.326 13.124,4.455 C13.124,4.585 13.020,4.690 12.890,4.690 ZM12.890,3.283 C12.890,3.283 9.140,3.283 9.140,3.283 C9.011,3.283 8.905,3.178 8.905,3.049 C8.905,2.920 9.011,2.814 9.140,2.814 C9.140,2.814 12.890,2.814 12.890,2.814 C13.020,2.814 13.124,2.920 13.124,3.049 C13.124,3.178 13.020,3.283 12.890,3.283 ZM7.500,6.094 C7.500,6.094 4.219,6.094 4.219,6.094 C3.959,6.094 3.750,5.883 3.750,5.625 C3.750,5.625 3.750,2.345 3.750,2.345 C3.750,2.086 3.959,1.877 4.219,1.877 C4.219,1.877 7.500,1.877 7.500,1.877 C7.759,1.877 7.969,2.086 7.969,2.345 C7.969,2.345 7.969,5.625 7.969,5.625 C7.969,5.884 7.759,6.094 7.500,6.094 ZM7.031,2.812 C7.031,2.812 4.687,2.812 4.687,2.812 C4.687,2.812 4.687,5.156 4.687,5.156 C4.687,5.156 7.031,5.156 7.031,5.156 C7.031,5.156 7.031,2.812 7.031,2.812 ZM3.984,9.845 C3.984,9.845 7.734,9.845 7.734,9.845 C7.863,9.845 7.969,9.951 7.969,10.080 C7.969,10.210 7.863,10.314 7.734,10.314 C7.734,10.314 3.984,10.314 3.984,10.314 C3.855,10.314 3.750,10.210 3.750,10.080 C3.750,9.951 3.855,9.845 3.984,9.845 ZM3.984,11.251 C3.984,11.251 7.734,11.251 7.734,11.251 C7.863,11.251 7.969,11.357 7.969,11.486 C7.969,11.616 7.863,11.720 7.734,11.720 C7.734,11.720 3.984,11.720 3.984,11.720 C3.855,11.720 3.750,11.616 3.750,11.486 C3.750,11.357 3.855,11.251 3.984,11.251 ZM3.984,12.658 C3.984,12.658 7.734,12.658 7.734,12.658 C7.863,12.658 7.969,12.763 7.969,12.892 C7.969,13.022 7.863,13.127 7.734,13.127 C7.734,13.127 3.984,13.127 3.984,13.127 C3.855,13.127 3.750,13.022 3.750,12.892 C3.750,12.763 3.855,12.658 3.984,12.658 Z" id="path-1" class="cls-2" fill-rule="evenodd"/>
</svg>
